<?xml version="1.0" encoding="utf-8"?>
<svg xmlns="http://www.w3.org/2000/svg" xmlns:xlink="http://www.w3.org/1999/xlink" style="margin: auto; background: rgb(241, 242, 243); display: block; z-index: 1; position: relative; shape-rendering: auto;" width="1673" height="1328" preserveAspectRatio="xMidYMid" viewBox="0 0 1673 1328">
<g transform="translate(836.5,664) scale(1,1) translate(-836.5,-664)"><g transform="translate(1299.1752674965855,305.1122747334997) scale(100)" opacity="0.4">
  <path d="M5.679834999999999 0 C5.679834999999999 1.3467649999999998 5.896524604415574 1.84924979707225 5.223142104415574 3.0155824999999994 S4.006250202927749 4.245498899303986 2.8399175 4.918881399303986 S1.3467650000000002 6.031165 3.693023456189773e-16 6.031165 S-1.6735847970722486 5.592263899303986 -2.839917499999998 4.918881399303986 S-4.549759604415572 4.181915202927751 -5.223142104415572 3.015582500000002 S-5.679834999999999 1.3467650000000004 -5.679834999999999 6.955791752435105e-16 S-5.896524604415575 -1.8492497970722486 -5.223142104415575 -3.015582499999998 S-4.006250202927751 -4.245498899303984 -2.839917500000002 -4.918881399303984 S-1.3467650000000009 -6.031165 -1.1079070368569319e-15 -6.031165 S1.6735847970722455 -5.592263899303987 2.8399174999999954 -4.918881399303988 S4.549759604415572 -4.181915202927751 5.223142104415572 -3.0155825000000025 S5.679834999999999 -1.346765000000001 5.679834999999999 -1.391158350487021e-15" fill="#00d0ff" stroke-width="0">
    <animateTransform attributeName="transform" type="rotate" dur="10s" repeatCount="indefinite" values="0;60"></animateTransform>
  </path>
</g><g transform="translate(1391.7103209959027,233.33472968019964) scale(100)" opacity="0.4">
  <path d="M6.815801999999999 0 C6.815801999999999 1.6161179999999997 7.075829525298689 2.2190997564867 6.267770525298689 3.6186989999999994 S4.807500243513299 5.094598679164783 3.4079010000000003 5.902657679164783 S1.6161180000000002 7.237398 4.431628147427728e-16 7.237398 S-2.0083017564866985 6.710716679164783 -3.407900999999998 5.902657679164784 S-5.459711525298688 5.018298243513301 -6.267770525298688 3.618699000000002 S-6.815801999999999 1.6161180000000006 -6.815801999999999 8.346950102922127e-16 S-7.075829525298689 -2.219099756486698 -6.2677705252986895 -3.6186989999999977 S-4.807500243513301 -5.094598679164781 -3.4079010000000025 -5.902657679164782 S-1.616118000000001 -7.237398 -1.3294884442283182e-15 -7.237398 S2.008301756486695 -6.7107166791647845 3.407900999999995 -5.902657679164786 S5.459711525298687 -5.018298243513302 6.267770525298687 -3.618699000000003 S6.815801999999999 -1.6161180000000015 6.815801999999999 -1.6693900205844253e-15" fill="#00e8ff" stroke-width="0">
    <animateTransform attributeName="transform" type="rotate" dur="5s" repeatCount="indefinite" values="0;60"></animateTransform>
  </path>
</g><g transform="translate(1613.7944493942637,61.068621552279524) scale(100)" opacity="0.4">
  <path d="M9.5421228 0 C9.5421228 2.2625651999999996 9.906161335418165 3.10673965908138 8.774878735418165 5.066178599999999 S6.73050034091862 7.132438150830698 4.771061400000001 8.263720750830698 S2.2625652 10.1323572 6.204279406398818e-16 10.1323572 S-2.811622459081379 9.395003350830697 -4.771061399999998 8.263720750830698 S-7.6435961354181625 7.025617540918622 -8.774878735418163 5.066178600000003 S-9.5421228 2.262565200000001 -9.5421228 1.1685730144090978e-15 S-9.906161335418163 -3.106739659081378 -8.774878735418165 -5.066178599999997 S-6.730500340918622 -7.132438150830694 -4.771061400000004 -8.263720750830695 S-2.2625652000000014 -10.1323572 -1.8612838219196455e-15 -10.1323572 S2.8116224590813736 -9.3950033508307 4.771061399999994 -8.263720750830702 S7.643596135418161 -7.025617540918622 8.774878735418161 -5.066178600000004 S9.5421228 -2.262565200000002 9.5421228 -2.3371460288181957e-15" fill="#00ffff" stroke-width="0">
    <animateTransform attributeName="transform" type="rotate" dur="3.3333333333333335s" repeatCount="indefinite" values="0;60"></animateTransform>
  </path>
</g></g>
</svg>